# xmcd
#
# Track frame offsets:
#	150
#	14684
#	31443
#	46489
#	66793
#	85050
#	105607
#	123489
#	139143
#	156179
#	172320
#	191879
#	207698
#	233011
#	246199
#
# Disc length: 3667 seconds
#
# Revision: 1
# Processed by: cddbd v1.5.2PL0 Copyright (c) Steve Scherf et al.
# Submitted via: audiograbber 1.83.01
#
DISCID=df0e510f
DTITLE=Kevin Bennett and The Flood - Blood Red Ties
DYEAR=2019
DGENRE=Country
TTITLE0=Spaghetti Western
TTITLE1=Down The Line
TTITLE2=River Sing
TTITLE3=Lion Baby
TTITLE4=Black Eyed Girl
TTITLE5=Charlie Boy
TTITLE6=Whenever Youre Ready
TTITLE7=The One
TTITLE8=Blue Again
TTITLE9=Just Another Town
TTITLE10=Olive Branch
TTITLE11=Shes Out There
TTITLE12=Shadow Man
TTITLE13=Hillbilly Heroin
TTITLE14=WKT
EXTD=
EXTT0=
EXTT1=
EXTT2=
EXTT3=
EXTT4=
EXTT5=
EXTT6=
EXTT7=
EXTT8=
EXTT9=
EXTT10=
EXTT11=
EXTT12=
EXTT13=
EXTT14=
PLAYORDER=
